<svg width="728" height="127" viewBox="0 0 728 127" fill="none" xmlns="http://www.w3.org/2000/svg">
<path d="M78.5 0H151V67.1401L192.5 0H247.5L169 127H96V60.6688L55 127H0L78.5 0Z" fill="black"/>
<path fill-rule="evenodd" clip-rule="evenodd" d="M276.5 0H445.5L367 127H198L276.5 0ZM280.197 83H339.197L363.303 44H304.303L280.197 83Z" fill="black"/>
<path fill-rule="evenodd" clip-rule="evenodd" d="M558.5 0L480 127H535L548.598 105H607.598L594 127H649L665.081 100.983L655 87L673.254 87.7606L727.5 0H558.5ZM645.303 44L634.795 61H575.795L586.303 44H645.303Z" fill="black"/>
<path d="M474.5 0H529.5L451 127H396L474.5 0Z" fill="black"/>
</svg>
